<?xml version="1.0" encoding="utf-8"?>
<!-- Generator: Avocode 2.6.0 - http://avocode.com -->
<svg height="98" width="152" xmlns:xlink="http://www.w3.org/1999/xlink" xmlns="http://www.w3.org/2000/svg" viewBox="0 0 152 98">
    <path fill="#231f20" fill-rule="evenodd" d="M 24.75 81.83 C 21.96 81.38 15.45 79.25 15.45 69.21 C 15.45 59.25 24.64 55.31 24.75 55.31 C 11.1 55.22 1.49 81.14 24.64 81.94 L 24.75 81.83 Z M 24.75 81.83" />
    <path fill="#231f20" fill-rule="evenodd" d="M 20.45 94.43 C 45.21 101.63 55.03 73.12 63.62 55.37 L 50.18 55.37 C 50.58 56.78 50.79 58.08 50.79 59.57 C 50.79 68.33 43.72 75.15 33.58 76.97 C 40.93 74.97 45.41 68.16 45.41 59.84 C 45.41 58.24 45.21 56.85 44.83 55.37 L 3.59 55.37 C 5.38 51.9 12.35 40.87 27.66 40.87 C 38.9 40.87 47.51 46.85 50.03 54.74 L 63.9 54.74 C 67.58 46.2 74.11 32.79 82.68 32.79 C 85.31 32.79 87.97 34.45 87.94 38.03 C 87.9 44.32 79.38 44.06 81.8 38.17 C 82.18 37.23 83.08 36.37 83.83 36.03 C 83.57 34.43 82.82 33.56 81.82 33.56 C 76.94 33.56 70.65 49.8 68.64 54.39 L 75.35 54.39 L 74.66 55.89 L 67.96 55.89 C 63.79 64.99 58.1 79.07 50.72 87.7 C 35.72 105.26 20.38 94.41 20.45 94.43 L 20.45 94.43 Z M 44.71 54.74 C 42.62 47.35 36.04 41.95 27.65 41.81 C 14.43 41.6 7.23 50.19 4.58 54.74 L 44.71 54.74 Z M 44.71 54.74" />
    <path fill="#231f20" fill-rule="evenodd" d="M 1.13 76.44 L 53.45 76.44 L 53.45 77.07 L 1.29 77.07 L 1.13 76.44 Z M 1.13 76.44" />
    <path fill="#231f20" fill-rule="evenodd" d="M 0.08 65.59 L 58.93 65.59 L 58.93 66.22 L 0 66.22 L 0.08 65.59 Z M 0.08 65.59" />
    <path fill="#231f20" fill-rule="evenodd" d="M 1.39 60.17 L 61.54 60.17 L 61.54 60.8 L 1.18 60.8 L 1.39 60.17 Z M 1.39 60.17" />
    <path fill="#231f20" fill-rule="evenodd" d="M 0.05 71.02 L 56.96 71.02 L 56.96 71.65 L 0.08 71.65 L 0.05 71.02 Z M 0.05 71.02" />
    <path fill="#231f20" fill-rule="evenodd" d="M 84.31 5.18 C 84.31 6 82.55 7.05 80.58 7.33 C 80.89 6.47 82.61 4.85 83.82 4.85 C 84.11 4.85 84.31 4.95 84.31 5.18 L 84.31 5.18 Z M 88.2 5.97 L 88.01 6.14 C 87.26 6.85 86.58 7.61 85.39 8.36 C 83.68 9.44 82.15 9.81 80.78 9.81 C 79.36 9.81 78.34 9.14 78.34 8.05 C 78.34 6.22 81.68 4.5 83.95 4.5 C 84.94 4.5 85.81 4.78 85.81 5.52 C 85.81 5.95 85.47 6.27 85.07 6.5 C 84.65 6.74 84.1 6.93 83.52 7.09 C 82.44 7.38 81.21 7.56 80.54 7.66 C 80.51 7.76 80.5 7.85 80.5 7.93 C 80.5 8.49 80.97 8.96 81.94 8.96 C 82.9 8.96 84.14 8.56 85.35 7.77 C 86.29 7.16 87.18 6.43 87.83 5.85 L 87.95 5.73 L 88.2 5.97 Z M 88.2 5.97" />
    <path fill="#231f20" fill-rule="evenodd" d="M 64.75 9.65 L 6.31 9.65 L 6.31 8.93 L 64.75 8.93 L 64.75 9.65 Z M 64.75 9.65" />
    <path fill="#231f20" fill-rule="evenodd" d="M 88.12 8.93 L 148.96 8.93 L 148.96 9.65 L 88.12 9.65 L 88.12 8.93 Z M 88.12 8.93" />
    <path fill="#231f20" fill-rule="evenodd" d="M 83.59 0.57 C 81.7 0.57 79.71 2.32 78.62 3.61 C 79.64 3.57 81 3.43 82.16 3.07 C 83.52 2.65 84.47 1.98 84.47 1 C 84.47 0.85 84.35 0.57 83.59 0.57 M 72.84 8.79 C 73.53 8.82 74.14 8.95 74.72 9.15 C 75.54 9.43 76.3 9.84 77.19 10.27 C 79.37 11.34 81.57 11.59 83.22 11.56 C 84.87 11.54 85.96 11.25 85.96 11.25 L 86.07 11.66 C 80.78 13.04 78.21 12.2 75.54 10.92 C 74.66 10.51 73.94 10.09 73.17 9.8 C 72.43 9.52 71.64 9.36 70.61 9.46 C 70.24 9.49 69.7 9.61 69.12 9.72 C 68.53 9.83 67.89 9.94 67.35 9.94 L 67.02 9.94 C 66.91 9.93 66.8 9.92 66.7 9.9 C 66.6 9.89 66.5 9.86 66.41 9.79 C 66.31 9.72 66.24 9.62 66.24 9.47 C 66.24 9.32 66.31 9.18 66.47 9.09 C 66.61 9.01 66.81 8.97 67.08 8.94 C 67.62 8.88 68.59 8.86 70.29 8.86 C 71.33 8.86 72.28 8.29 73.24 7.34 C 73.72 6.86 74.21 6.3 74.7 5.68 C 75.13 5.14 75.57 4.56 76.02 3.97 C 74.82 3.72 73.29 3.18 73.29 1.86 C 73.29 0.83 74.49 0.03 75.91 0.04 C 76.71 0.04 77.34 0.22 77.34 0.22 L 77.21 0.6 L 77.07 0.56 C 76.81 0.5 76.57 0.47 76.25 0.47 C 74.95 0.47 73.89 0.98 73.92 1.88 C 73.95 2.6 74.96 3.23 76.43 3.46 C 77.81 1.62 80.76 0 83.84 0 C 84.35 0 84.94 0.06 85.4 0.24 C 85.86 0.42 86.26 0.74 86.26 1.29 C 86.26 2.5 84.61 3.19 82.95 3.6 C 81.27 4.01 79.32 4.18 78.19 4.19 C 76.84 6.05 75.4 7.78 72.84 8.79" />
    <path fill="#231f20" fill-rule="evenodd" d="M 13.18 15.79 C 13.18 15.05 13.29 14.83 13.51 14.75 C 13.81 14.64 14.33 14.53 16.19 14.53 C 19.17 14.53 21.29 14.98 22.74 15.76 C 26.46 17.69 27.28 21.67 27.28 25.43 C 27.28 31.02 24.27 36.41 16.45 36.41 C 15.19 36.41 14.29 36.19 13.81 35.78 C 13.29 35.33 13.18 34.59 13.18 32.88 L 13.18 15.79 Z M 6.85 13.45 L 6.85 14.31 C 9.75 14.53 10.05 14.79 10.05 18.85 L 10.05 32.24 C 10.05 36.3 9.75 36.56 6.55 36.78 L 6.55 37.64 L 15.11 37.64 C 23.86 37.64 30.89 33.66 30.89 24.47 C 30.89 21.04 29.51 18.32 27.65 16.58 C 25.27 14.34 21.7 13.45 17.27 13.45 L 6.85 13.45 Z M 6.85 13.45" />
    <path fill="#231f20" fill-rule="evenodd" d="M 50.92 28.69 C 50.92 34.3 47.97 37.1 44.35 37.1 C 39.96 37.1 36.91 33 36.91 27.19 C 36.91 21.52 39.93 18.6 43.48 18.6 C 47.79 18.6 50.92 22.19 50.92 28.69 M 44.26 17.61 C 37.55 17.61 33.99 23 33.99 28.06 C 33.99 33.75 38.03 38.09 43.72 38.09 C 49.48 38.09 53.84 33.84 53.84 27.58 C 53.84 21.64 49.48 17.61 44.26 17.61" />
    <path fill="#231f20" fill-rule="evenodd" d="M 76.04 36.74 C 77.35 36.07 78.5 34.97 78.45 33.27 L 78.21 22.43 C 78.12 19.08 78.3 18.96 80.92 18.75 L 80.92 18.06 L 75.95 18.06 L 68.78 33.57 L 61.49 18.06 L 56.52 18.06 L 56.52 18.75 C 59.35 18.96 59.56 19.29 59.35 23.33 L 59.02 29.66 C 58.87 32.64 58.69 34.45 58.51 35.38 C 58.3 36.5 57.67 36.8 55.98 36.95 L 55.98 37.64 L 63.06 37.64 L 63.06 36.95 C 61.1 36.8 60.38 36.5 60.23 35.38 C 60.11 34.45 60.11 32.79 60.23 29.96 L 60.53 21.55 L 67.55 37.31 L 68.3 37.31 L 75.68 21.13 L 75.92 33.27 C 75.94 35 75.92 35.87 75.62 36.33 L 76.04 36.74 Z M 76.04 36.74" />
    <path fill="#231f20" fill-rule="evenodd" d="M 108.33 22.43 C 108.33 19.14 108.57 18.93 111.04 18.75 L 111.04 18.06 L 103.09 18.06 L 103.09 18.75 C 105.56 18.93 105.8 19.14 105.8 22.43 L 105.8 33.27 C 105.8 36.55 105.56 36.77 103.09 36.95 L 103.09 37.64 L 111.04 37.64 L 111.04 36.95 C 108.57 36.77 108.33 36.55 108.33 33.27 L 108.33 22.43 Z M 108.33 22.43" />
    <path fill="#231f20" fill-rule="evenodd" d="M 131.13 26.04 C 131.13 22.88 131.25 21.25 131.37 20.32 C 131.52 19.26 132.3 18.81 133.96 18.75 L 133.96 18.06 L 126.73 18.06 L 126.73 18.75 C 128.72 18.84 129.53 19.26 129.68 20.32 C 129.8 21.25 129.92 22.88 129.92 26.04 L 129.92 33.24 L 129.86 33.24 L 117.18 18.06 L 112.78 18.06 L 112.78 18.75 C 114.04 18.84 114.86 19.05 115.43 19.77 C 115.97 20.47 116 20.95 116 23.12 L 116 29.66 C 116 32.82 115.88 34.45 115.76 35.38 C 115.61 36.44 114.83 36.89 113.17 36.95 L 113.17 37.64 L 120.4 37.64 L 120.4 36.95 C 118.41 36.86 117.6 36.44 117.45 35.38 C 117.33 34.45 117.21 32.82 117.21 29.66 L 117.21 21.97 L 117.27 21.97 L 130.34 37.85 L 131.13 37.85 L 131.13 26.04 Z M 131.13 26.04" />
    <path fill="#231f20" fill-rule="evenodd" d="M 138.5 33.27 C 138.5 36.56 138.26 36.77 135.55 36.95 L 135.55 37.64 L 149.8 37.64 C 150.04 36.83 150.71 33.75 150.86 32.91 L 150.1 32.82 C 149.65 34.21 149.17 35.23 148.66 35.77 C 147.99 36.5 146.58 36.65 144.86 36.65 C 143.45 36.65 142.36 36.65 141.79 36.28 C 141.22 35.92 141.04 35.02 141.04 33.3 L 141.04 27.97 L 144.08 27.97 C 145.37 27.97 146.04 28.03 146.43 28.36 C 146.82 28.69 146.91 29.29 147.06 30.41 L 147.81 30.41 L 147.81 24.44 L 147.06 24.44 C 146.76 26.67 146.67 26.85 144.08 26.85 L 141.04 26.85 L 141.04 19.99 C 141.04 19.11 141.1 19.05 141.94 19.05 L 144.23 19.05 C 146.07 19.05 147.06 19.26 147.54 19.77 C 147.99 20.26 148.33 21.04 148.63 22.55 L 149.38 22.46 C 149.23 20.77 149.08 18.57 149.05 18.06 L 135.85 18.06 L 135.85 18.75 C 138.26 18.93 138.5 19.14 138.5 22.43 L 138.5 33.27 Z M 138.5 33.27" />
    <path fill="#231f20" fill-rule="evenodd" d="M 91.43 21.64 L 94.15 29.05 L 88.81 29.05 L 91.43 21.64 Z M 86.63 35.5 C 86.71 35.29 86.73 35.15 86.92 34.6 C 87.34 33.33 88.12 30.98 88.42 30.2 L 94.54 30.2 C 95.38 32.37 96.25 34.72 96.47 35.44 C 96.77 36.37 96.65 36.71 95.53 36.83 L 94.57 36.95 L 94.57 37.64 L 101.86 37.64 L 101.86 36.95 C 99.99 36.8 99.6 36.59 98.63 34.05 C 97.46 30.98 96.13 27.16 94.72 23.33 L 92.58 17.61 L 91.89 17.88 L 85.68 33.87 C 85.4 34.59 85.18 35.12 85.02 35.53 L 86.63 35.5 Z M 86.63 35.5" />
    <path fill="#231f20" fill-rule="evenodd" d="M 131.02 78 C 127.19 77.24 128.3 71.42 128.52 70.35 C 124.39 76.69 121.41 77.93 118.82 77.93 C 116.03 77.93 114.3 74.75 114.3 70.18 C 114.3 62.05 120.66 53.53 125.25 53.53 C 127.35 53.53 128.6 54.99 128.6 57.53 C 128.6 63.7 120.58 66.37 118.01 67.32 C 117.9 68.08 117.83 68.84 117.83 69.61 C 117.83 73.23 119.08 75.77 121.17 75.77 C 123.04 75.77 126.13 73.77 129.21 67.72 C 130.16 64.63 131.57 61.08 133.31 55.87 L 130.56 55.87 L 130.81 54.72 L 133.64 54.72 L 136.52 46.54 L 140.49 46.29 L 137.32 54.72 L 141.99 54.72 L 141.66 55.87 L 136.92 55.87 C 132.04 69.77 129.06 74.96 132.9 76.66 C 135.19 77.67 155.17 64.01 146.63 43.96 L 149.32 43.55 C 156.99 59.7 137.41 79.28 131.02 78 M 125.66 55.95 C 125.66 54.8 125.25 54.29 124.66 54.29 C 122.2 54.29 118.71 62.43 118.08 66.68 C 122.09 65.29 125.66 60.08 125.66 55.95" />
    <path fill="#231f20" fill-rule="evenodd" d="M 92.66 81.9 L 92.66 82.34 C 90.08 82.41 88.76 84.95 88.76 89.14 C 88.76 93.15 90.38 96.26 92.88 96.26 C 99.79 96.26 104.46 80.31 107.84 71.79 L 107.76 71.67 C 106.18 74.84 103.98 77.89 101.37 77.89 C 99.38 77.89 98.28 75.04 98.28 71.86 C 98.28 63.53 103.68 53.87 108.54 53.87 C 110.37 53.87 111.4 54.89 111.99 58 L 112.84 55.27 L 116.59 54.89 C 113.94 62.64 111.48 70.78 108.65 78.59 L 108.35 79.48 C 104.82 90.03 99.46 97.02 92.43 97.02 C 88.83 97.02 85.67 94.92 85.67 88.82 C 85.67 84.19 88.17 81.58 90.63 81.58 C 91.07 81.58 92.18 81.83 92.66 81.9 M 101.81 71.35 C 101.81 73.83 102.14 75.73 103.79 75.73 C 106.88 75.73 110.74 63.34 110.74 58.51 C 110.74 56.73 110.56 54.64 109.23 54.64 C 105.63 54.64 101.81 65.76 101.81 71.35" />
    <path fill="#231f20" fill-rule="evenodd" d="M 73.47 77.13 C 72.37 77.12 71.91 75.84 72.01 73.75 C 72.25 68.41 76.71 54.28 80.43 54.32 C 81.53 54.33 81.99 55.61 81.89 57.7 C 81.65 63.04 77.18 77.17 73.47 77.13 M 84.78 59.59 C 84.6 56.15 83.26 53.58 80.65 53.56 C 75.76 53.51 69.48 61.33 69.07 70.35 C 68.86 74.99 70.49 77.86 73.18 77.89 C 78.29 77.94 83.13 70.87 84.66 62.43 C 84.74 61.6 84.84 60.77 84.78 59.59" />
    <path fill="#231f20" fill-rule="evenodd" d="M 85.97 77.07 C 88.14 70.14 91.38 62.01 95.53 57.24 L 95.61 57.37 C 95.1 58.39 94.81 59.86 94.73 60.61 C 94.42 63.5 95.74 65.88 97.68 65.88 C 99.89 65.88 101.8 63.78 103.16 60.86 L 103.02 60.54 C 102.13 62.13 100.79 65 99.39 65 C 98.33 65 97.81 64.17 97.81 62.26 C 97.81 59.4 99.39 56.16 100.31 53.87 C 99.11 53.87 97.03 54.73 95.76 56.14 C 94.8 57.21 93 58.7 89.32 66.58 L 89.25 66.46 L 94.1 54.64 L 89.91 54.89 C 87.37 62.45 84.76 69.82 82.26 77.26 L 85.97 77.07 Z M 85.97 77.07" />
</svg>